<svg width="28" height="22" viewBox="0 0 28 22" fill="red" xmlns="http://www.w3.org/2000/svg">
<path d="M23.3654 2.33265C23.3578 2.31791 23.3451 2.30636 23.3296 2.30007C21.5428 1.48581 19.6573 0.905183 17.7201 0.572713C17.7025 0.569463 17.6843 0.571808 17.6681 0.579413C17.652 0.587019 17.6386 0.599498 17.63 0.615075C17.3732 1.07794 17.1401 1.55337 16.9316 2.03956C14.8435 1.72472 12.7194 1.72472 10.6313 2.03956C10.4214 1.55213 10.1846 1.07658 9.92193 0.615075C9.91292 0.599836 9.8995 0.587644 9.88342 0.580089C9.86733 0.572533 9.84933 0.569963 9.83175 0.572713C7.89438 0.904485 6.0087 1.48516 4.22215 2.30011C4.20685 2.30655 4.19395 2.31755 4.18522 2.33158C0.612472 7.63095 -0.366237 12.8 0.113884 17.9051C0.115235 17.9176 0.119105 17.9297 0.125264 17.9407C0.131424 17.9517 0.139747 17.9614 0.149739 17.9691C2.23011 19.499 4.55704 20.6669 7.03122 21.4227C7.04864 21.4279 7.06725 21.4277 7.08453 21.4221C7.10182 21.4164 7.11695 21.4057 7.12791 21.3913C7.6593 20.6731 8.13017 19.9126 8.5357 19.1176C8.54127 19.1067 8.54445 19.0947 8.54503 19.0825C8.54561 19.0703 8.54358 19.0581 8.53907 19.0467C8.53455 19.0353 8.52767 19.025 8.51885 19.0164C8.51004 19.0079 8.4995 19.0013 8.48794 18.9971C7.74543 18.7149 7.02659 18.3748 6.33817 17.9798C6.32566 17.9725 6.31516 17.9623 6.30759 17.95C6.30002 17.9377 6.29561 17.9237 6.29475 17.9093C6.29389 17.895 6.29662 17.8806 6.30268 17.8675C6.30874 17.8544 6.31795 17.843 6.3295 17.8343C6.47395 17.7268 6.61849 17.615 6.75643 17.502C6.76868 17.492 6.78351 17.4856 6.79924 17.4835C6.81498 17.4814 6.83099 17.4837 6.84548 17.4901C11.3556 19.5345 16.2384 19.5345 20.6951 17.4901C20.7097 17.4833 20.7258 17.4806 20.7418 17.4826C20.7578 17.4845 20.7729 17.4909 20.7853 17.501C20.9233 17.6139 21.0678 17.7268 21.2133 17.8343C21.2249 17.8429 21.2342 17.8542 21.2404 17.8673C21.2465 17.8803 21.2494 17.8947 21.2486 17.9091C21.2479 17.9234 21.2436 17.9374 21.2361 17.9498C21.2286 17.9621 21.2182 17.9724 21.2057 17.9798C20.5189 18.3781 19.7994 18.718 19.0549 18.996C19.0434 19.0004 19.0329 19.0071 19.0241 19.0158C19.0154 19.0245 19.0085 19.0349 19.0041 19.0464C18.9997 19.0579 18.9978 19.0701 18.9984 19.0824C18.9991 19.0947 19.0024 19.1067 19.0081 19.1176C19.4204 19.9082 19.8905 20.6677 20.4148 21.39C20.4254 21.4048 20.4405 21.4159 20.4578 21.4218C20.4752 21.4276 20.4939 21.4279 20.5115 21.4226C22.9901 20.6693 25.3211 19.5014 27.404 17.9691C27.4142 17.9617 27.4226 17.9523 27.4288 17.9415C27.435 17.9306 27.4388 17.9186 27.4399 17.9062C28.0147 12.0042 26.4776 6.87746 23.3654 2.33265ZM9.20924 14.7966C7.85137 14.7966 6.73252 13.559 6.73252 12.0389C6.73252 10.5189 7.82967 9.28117 9.20924 9.28117C10.5996 9.28117 11.7076 10.5297 11.6859 12.0389C11.6859 13.559 10.5887 14.7966 9.20924 14.7966ZM18.3664 14.7966C17.0086 14.7966 15.8897 13.559 15.8897 12.0389C15.8897 10.5189 16.9869 9.28117 18.3664 9.28117C19.7569 9.28117 20.8648 10.5297 20.8431 12.0389C20.8431 13.559 19.7569 14.7966 18.3664 14.7966Z" fill="#2F2F2F"/>
</svg>
