<svg width="28" height="24" viewBox="0 0 28 24" fill="none" xmlns="http://www.w3.org/2000/svg">
<path d="M25.1411 6.51382C25.1587 6.7588 25.1587 7.00384 25.1587 7.24883C25.1587 14.7213 19.4244 23.3314 8.94383 23.3314C5.71495 23.3314 2.71549 22.4037 0.192383 20.7938C0.651144 20.8463 1.0922 20.8639 1.56862 20.8639C4.23282 20.8639 6.68537 19.9714 8.64386 18.4489C6.13841 18.3963 4.03877 16.7688 3.31535 14.5288C3.66825 14.5813 4.02112 14.6163 4.39167 14.6163C4.90333 14.6163 5.41505 14.5463 5.8914 14.4239C3.2801 13.8988 1.32155 11.6239 1.32155 8.87632V8.80636C2.08022 9.22636 2.96249 9.48885 3.89755 9.52381C2.36252 8.50879 1.35685 6.77631 1.35685 4.81629C1.35685 3.76631 1.6391 2.80382 2.13317 1.96381C4.93858 5.39381 9.15553 7.63377 13.884 7.87881C13.7959 7.45881 13.7429 7.02136 13.7429 6.58384C13.7429 3.46881 16.2837 0.931335 19.4419 0.931335C21.0828 0.931335 22.565 1.61383 23.6059 2.71634C24.8939 2.47135 26.1289 1.99882 27.223 1.35134C26.7995 2.66387 25.8997 3.76637 24.7175 4.46633C25.8644 4.34388 26.976 4.02881 27.9992 3.59136C27.2231 4.7113 26.2526 5.70877 25.1411 6.51382Z" fill="#2F2F2F"/>
</svg>
